<?xml version="1.0" encoding="UTF-8" standalone="no"?>
<svg
   width="40.324894"
   height="39.99995"
   viewBox="0 0 40.324894 39.99995"
   fill="none"
   version="1.1"
   id="svg17"
   sodipodi:docname="yorck.svg"
   inkscape:version="1.4.2 (ebf0e940d0, 2025-05-08)"
   xmlns:inkscape="http://www.inkscape.org/namespaces/inkscape"
   xmlns:sodipodi="http://sodipodi.sourceforge.net/DTD/sodipodi-0.dtd"
   xmlns="http://www.w3.org/2000/svg"
   xmlns:svg="http://www.w3.org/2000/svg">
  <defs
     id="defs17" />
  <sodipodi:namedview
     id="namedview17"
     pagecolor="#ffffff"
     bordercolor="#666666"
     borderopacity="1.0"
     inkscape:showpageshadow="2"
     inkscape:pageopacity="0.0"
     inkscape:pagecheckerboard="0"
     inkscape:deskcolor="#d1d1d1"
     inkscape:zoom="5.1104167"
     inkscape:cx="52.637587"
     inkscape:cy="12.132083"
     inkscape:window-width="2560"
     inkscape:window-height="1403"
     inkscape:window-x="0"
     inkscape:window-y="0"
     inkscape:window-maximized="1"
     inkscape:current-layer="svg17" />
  <g
     id="g17">
    <path
       d="m 20.9805,1.78393 2.1814,-1.514664 c 0.7011,-0.504887 1.7139,-0.27186169 2.1813,0.46605 l 1.3634,2.252574 c 0.3116,0.54372 0.9738,0.81559 1.5971,0.69907 l 2.6099,-0.50488 c 0.857,-0.15535 1.675,0.42721 1.7918,1.28163 l 0.3117,2.60211 c 0.0779,0.6214 0.5453,1.12629 1.1686,1.28164 l 2.5709,0.58256 c 0.857,0.19419 1.3634,1.08748 1.0907,1.90308 l -0.7791,2.5244 c -0.1947,0.6214 0.039,1.2816 0.5454,1.6312 l 2.1034,1.5923 c 0.7012,0.5437 0.8181,1.5535 0.2338,2.2137 l -1.7529,2.0584 c -0.4285,0.4661 -0.5064,1.1651 -0.1948,1.7089 l 1.2855,2.2914 c 0.4284,0.7767 0.1168,1.7477 -0.7012,2.0972 l -2.3762,1.1263 c -0.5843,0.2719 -0.9348,0.8544 -0.8569,1.5147 l 0.2337,2.6409 c 0.0779,0.8544 -0.6233,1.6312 -1.4802,1.6312 l -2.6489,0.0388 c -0.6232,0 -1.2075,0.4272 -1.4023,1.0098 l -0.857,2.4856 c -0.2726,0.8156 -1.2075,1.2428 -2.0255,0.8932 l -2.4152,-1.0097 c -0.5843,-0.233 -1.2465,-0.1165 -1.7139,0.3495 l -1.7919,1.903 c -0.5843,0.6214 -1.5971,0.6214 -2.2203,0 l -1.7919,-1.903 c -0.4285,-0.466 -1.1296,-0.6214 -1.7139,-0.3495 l -2.4151,1.0097 c -0.818,0.3496 -1.7529,-0.0776 -2.0256,-0.8932 l -0.857,-2.4856 C 10.0346,34.3297 9.45026,33.9025 8.827,33.9025 L 6.17817,33.8637 c -0.89593,0 -1.55813,-0.7768 -1.48023,-1.6312 L 4.93166,29.5916 C 4.97062,28.9702 4.62004,28.3488 4.07469,28.0769 L 1.69853,26.9506 C 0.919462,26.5622 0.607835,25.6301 0.997369,24.8534 L 2.28283,22.562 C 2.59446,22.0182 2.51655,21.3192 2.08806,20.8531 L 0.374115,18.8724 c -0.584301,-0.6602 -0.467441,-1.67 0.23372,-2.2137 L 2.71132,15.0663 C 3.21771,14.678 3.45143,14.0177 3.25667,13.4352 L 2.4776,10.9107 C 2.20492,10.0563 2.75027,9.20188 3.56829,9.0077 L 6.13922,8.42513 C 6.76247,8.26978 7.22991,7.7649 7.30782,7.1435 L 7.61945,4.54139 C 7.73631,3.68696 8.55433,3.06556 9.4113,3.25975 l 2.6099,0.50489 c 0.6232,0.11651 1.2465,-0.15535 1.5971,-0.69908 L 14.9816,0.812991 C 15.4491,0.0750795 16.4229,-0.157946 17.163,0.346942 L 19.3444,1.8616 c 0.4285,0.27186 1.1297,0.27187 1.6361,-0.07767 z"
       fill="#1a1a1a"
       id="path1" />
    <path
       d="m 31.1079,10.7166 h -7.4401 -0.779 v 1.3204 c 2.454,0.1165 3.0773,0.5049 3.0773,1.2428 0,0.4272 -0.1558,0.971 -0.857,1.8642 L 20.8242,20.5813 16.851,15.144 c -0.818,-1.0874 -1.0517,-1.4758 -1.0517,-1.903 0,-0.6991 0.3895,-1.0875 2.3761,-1.204 V 10.7166 H 8.28125 v 1.3204 c 0.97384,0.1942 1.1686,0.4272 2.53195,2.1361 l 7.0116,8.8549 v 3.5342 c 0,2.6021 -0.5843,3.0294 -4.168,3.1459 v 1.3204 h 12.6599 v -1.3204 c -3.5837,-0.0777 -4.168,-0.5438 -4.168,-3.1459 v -3.4565 l 6.8168,-8.7773 c 1.3244,-1.7088 1.8698,-2.136 2.8826,-2.2914 v -1.3204 z"
       fill="#ffffff"
       id="path2" />
  </g>
</svg>
