<svg xmlns="http://www.w3.org/2000/svg" viewBox="0 0 512 512"><path fill="#111" d="M278.544 11.4c20.495-17.557 52.468-13.655 70.503 7.803 18.856-12.68 50.008-3.901 62.305 23.409 21.315-2.926 47.548 18.532 52.467 51.695 21.315 6.827 37.71 39.99 31.153 72.177 17.215 15.606 22.954 52.67 9.837 80.956 11.477 22.434 5.739 60.473-13.117 82.907 4.92 32.187-13.116 65.35-39.35 77.054-3.28 33.163-27.873 58.523-56.566 58.523-12.297 24.384-43.45 35.113-67.224 24.384-18.855 21.458-50.827 28.286-73.782 14.63-21.314 13.656-52.467 6.828-71.322-14.63-23.774 10.729-54.927 0-67.224-24.384-28.693 0-53.287-25.36-56.566-58.523-26.234-11.704-44.27-44.867-39.35-77.054C1.452 307.913-4.286 269.874 7.19 247.44c-13.117-28.286-7.378-65.35 9.837-80.956-6.558-32.187 9.838-65.35 31.153-72.177 4.919-33.163 31.152-54.621 52.467-51.695 12.297-27.31 43.45-36.089 62.305-23.409 18.035-21.458 50.008-25.36 70.503-7.803 19.751-25.096 47.3-1.09 45.088 0" style="stroke-width:.894209"/><text x="-356.456" y="-70.315" fill="#fff" dominant-baseline="central" font-family="Georgia, 'Times New Roman', serif" font-size="316.489" font-weight="700" style="stroke-width:1.43859" text-anchor="middle" transform="rotate(-143.216)">Y</text></svg>